<?xml version="1.0" encoding="utf-8"?>
<!-- Generator: Adobe Illustrator 21.0.2, SVG Export Plug-In . SVG Version: 6.00 Build 0)  -->
<svg version="1.1" id="Layer_1" xmlns="http://www.w3.org/2000/svg" xmlns:xlink="http://www.w3.org/1999/xlink" x="0px" y="0px"
	 viewBox="0 0 2436.7 807" style="enable-background:new 0 0 2436.7 807;" xml:space="preserve">
<style type="text/css">
	.st0{fill:#FFFFFF;}
</style>
<g>
	<path class="st0" d="M560.5,750.3c0,15.7-12.3,26.4-29.6,26.4h-14.1v28.8H500V724h30.9C548.1,724,560.5,734.4,560.5,750.3z
		 M516.8,738.7v23.5h14.1c7.8,0,12.4-4.8,12.4-11.9c0-6.8-4.6-11.6-12.4-11.6H516.8z"/>
	<path class="st0" d="M629.2,739.1h-38.5v16.5H619v14.2h-28.3v20.6h40v15.1h-56.8V724h55.3V739.1z"/>
	<path class="st0" d="M695.7,805.5l-21.3-28.8H662v28.8h-16.8V724h30.9c17.3,0,29.6,10.4,29.6,26.3c0,10.5-5.6,18.8-14.4,23.1
		l23.3,32.1H695.7z M662,762.1h14.1c7.8,0,12.4-4.7,12.4-11.7c0-6.8-4.6-11.6-12.4-11.6H662V762.1z"/>
	<path class="st0" d="M778.9,739.1h-37.2v20.4h30.5v15.1h-30.5v31h-16.8V724h54V739.1z"/>
	<path class="st0" d="M873.6,764.8c0,23.9-19.7,42.2-43.8,42.2c-24.2,0-43.6-18.3-43.6-42.2c0-23.9,19.4-42.2,43.6-42.2
		C853.9,722.6,873.6,740.8,873.6,764.8z M803.5,764.8c0,15.8,11.1,26.8,26.4,26.8c15.1,0,26.4-11,26.4-26.8
		c0-15.7-11.3-26.8-26.4-26.8C814.5,738,803.5,749.1,803.5,764.8z"/>
	<path class="st0" d="M938.2,805.5l-21.3-28.8h-12.3v28.8h-16.8V724h30.9c17.3,0,29.6,10.4,29.6,26.3c0,10.5-5.6,18.8-14.4,23.1
		l23.3,32.1H938.2z M904.6,762.1h14.1c7.8,0,12.4-4.7,12.4-11.7c0-6.8-4.6-11.6-12.4-11.6h-14.1V762.1z"/>
	<path class="st0" d="M1047.8,722.6v83H1031v-43.6l-20.7,25.8h-5.5l-20.7-25.8v43.6h-16.8v-83h5.5l34.7,44.2l34.7-44.2H1047.8z"/>
	<path class="st0" d="M1115.2,794.9h-33.6l-4.6,10.6h-18.1l36.7-83h5.6l36.6,83h-18.1L1115.2,794.9z M1098.4,753.8l-10.8,27.4h21.7
		L1098.4,753.8z"/>
	<path class="st0" d="M1219,724v83h-5.6l-47.6-50.4v48.9h-16.8v-83h5.5l47.7,50V724H1219z"/>
	<path class="st0" d="M1313.1,742.8l-12.7,8.9c-5.5-8.6-13.2-13.7-23.5-13.7c-15.3,0-26.5,11.1-26.5,26.9
		c0,15.7,11.2,26.7,26.5,26.7c10.3,0,18.1-5.1,23.5-13.7l12.7,8.9c-7.1,12.5-20.4,20.2-36.4,20.2c-24.4,0-43.7-18.3-43.7-42.2
		c0-23.9,19.3-42.2,43.8-42.2C1292.7,722.6,1305.9,730.3,1313.1,742.8z"/>
	<path class="st0" d="M1382.7,739.1h-38.5v16.5h28.3v14.2h-28.3v20.6h40v15.1h-56.8V724h55.3V739.1z"/>
	<path class="st0" d="M1459.3,732.7h-29v72.8h-9.7v-72.8h-28.9V724h67.6V732.7z"/>
	<path class="st0" d="M1525.8,805.5l-25.5-34.2h-17.6v34.2h-9.7V724h28.9c16.2,0,26.3,9.9,26.3,23.6c0,11-6.5,19.5-17.2,22.6
		l26.1,35.3H1525.8z M1482.7,762.7h18.8c10.8,0,16.6-6.2,16.6-14.9c0-8.6-5.7-15.1-16.6-15.1h-18.8V762.7z"/>
	<path class="st0" d="M1600.4,789h-40.1l-7.1,16.5H1543l35.6-82.8h3.6l35.6,82.8h-10.3L1600.4,789z M1580.3,740.3l-16.4,40h32.9
		L1580.3,740.3z"/>
	<path class="st0" d="M1642.7,805.5h-9.7V724h9.7V805.5z"/>
	<path class="st0" d="M1730.7,724v82.8h-3.5l-52.3-62.6v61.2h-9.7v-82.8h3.5l52.3,62.7V724H1730.7z"/>
	<path class="st0" d="M1763.1,805.5h-9.7V724h9.7V805.5z"/>
	<path class="st0" d="M1851.1,724v82.8h-3.5l-52.3-62.6v61.2h-9.7v-82.8h3.5l52.3,62.7V724H1851.1z"/>
	<path class="st0" d="M1944.6,739.3l-7.3,5.7c-6.1-8.4-14.9-13.5-26.1-13.5c-19,0-32.6,14.3-32.6,33.1c0,19,13.8,33.6,33.1,33.6
		c12.3,0,21.9-6,27.4-14.6v-11h-28V764h37.7v21.7c-7.2,12.6-21.2,21.1-37.6,21.1c-24,0-42.7-18.4-42.7-42.1
		c0-23.8,18.8-42.1,42.7-42.1C1925.2,722.7,1937,729,1944.6,739.3z"/>
</g>
<path class="st0" d="M406.3,62.9l-52.6-52.6c-3.8-3.8-7.5-6.3-11.2-7.5c-3.8-1.2-8.1-1.9-13.1-1.9h-94v112.6h44.3
	c0.6,0,2.5,0.9,5.6,2.8l16,15c1.9,1.9,2.8,4.1,2.8,6.6v49.7c0,8.8,4.4,13.1,13.1,13.1h86.3c8.8,0,13.1-4.4,13.1-13.1V87.3
	c0-6.9-0.8-11.7-2.4-14.5C412.7,69.9,410.1,66.6,406.3,62.9z"/>
<path class="st0" d="M128.6,543.3l-13.1-13.1c-1.9-1.9-2.8-4.7-2.8-8.4V137.9c0-2.5,0.9-4.7,2.8-6.6l15.9-15
	c1.9-1.9,4.4-2.8,7.5-2.8h42.4V0.9h-94c-4.4,0-8.6,0.6-12.7,1.9c-4.1,1.3-8,3.8-11.7,7.5L9.4,62.9C3.1,69.1,0,77.2,0,87.3v484.2
	c0,3.8,0.6,7.4,1.9,10.8c1.2,3.4,3.8,7,7.5,10.8l53.5,53.5c4.4,4.4,8.1,7,11.3,8c3.1,0.9,6.6,1.4,10.3,1.4h96.8V543.3H128.6z"/>
<path class="st0" d="M329.4,655.9c6.9,0,11.9-0.8,15-2.4c3.1-1.5,6.3-3.9,9.4-7l52.6-53.5c4.4-4.4,7.2-8.1,8.4-11.2
	c1.2-3.1,1.9-6.9,1.9-11.3V471c0-3.7-1.3-7-3.8-9.8c-2.5-2.8-5.6-4.2-9.4-4.2h-86.3c-3.8,0-6.9,1.4-9.4,4.2
	c-2.5,2.8-3.8,6.1-3.8,9.8v52.6c0,2.5-0.9,4.7-2.8,6.6l-13.1,13.1h-52.8v112.6H329.4z"/>
<path class="st0" d="M905.5,0.9h-86.3c-8.8,0-13.1,4.4-13.1,13.1v258H662.4v112.6H806v258c0,8.8,4.4,13.1,13.1,13.1h86.3
	c8.8,0,13.1-4.4,13.1-13.1V14.1C918.6,5.3,914.2,0.9,905.5,0.9z"/>
<path class="st0" d="M601.5,0.9h-86.3c-8.8,0-13.1,4.4-13.1,13.1v628.7c0,8.8,4.4,13.1,13.1,13.1h86.3c2.8,0,5-0.6,6.9-1.5V2.4
	C606.4,1.5,604.3,0.9,601.5,0.9z"/>
<path class="st0" d="M1176.6,0c-3.8,0-6.6,1.6-8.4,4.7s-3.5,6.3-4.7,9.4L977.7,641.8c-1.3,3.8-0.2,7,3.3,9.8c3.4,2.8,7,4.2,10.8,4.2
	h81.6c3.8,0,7.4-1.4,10.8-4.2c2.4-2,4-4.2,5.4-6.6L1279.5,0H1176.6z"/>
<path class="st0" d="M1316.7,65.1l-56.5,191.8l43.1,144.7h-85.7l-33.7,114.5h153.2l36.6,125.7c1.3,3.8,3.6,7,7,9.8
	c3.4,2.8,7,4.2,10.8,4.2h81.6c3.8,0,7.2-1.4,10.3-4.2c3.1-2.8,4.1-6.1,2.8-9.8L1316.7,65.1z"/>
<path class="st0" d="M1658,543.3V12.2c0-3.1-1.4-5.8-4.2-8c-2.8-2.2-5.8-3.3-8.9-3.3h-86.3c-3.1,0-6.1,1.1-8.9,3.3
	c-2.8,2.2-4.2,4.9-4.2,8v630.5c0,8.8,4.4,13.1,13.1,13.1h99.5L1658,543.3L1658,543.3z"/>
<path class="st0" d="M1934.8,543.3H1712v112.6h222.7c8.8,0,13.1-4.4,13.1-13.1v-86.3C1947.9,547.7,1943.5,543.3,1934.8,543.3z"/>
<path class="st0" d="M2116.8,0.9h-86.3c-8.8,0-13.1,4.4-13.1,13.1v628.7c0,8.8,4.4,13.1,13.1,13.1h86.3c8.2,0,12.4-4,12.9-11.6V12.5
	C2129.2,4.9,2124.9,0.9,2116.8,0.9z"/>
<path class="st0" d="M2434.2,634.3l-177.3-318.5l173.6-297c3.8-5,3.9-9.2,0.5-12.7c-3.4-3.4-8.3-5.2-14.5-5.2H2300
	c-3.7,0-6.9,1.3-9.4,3.8c-2.5,2.5-5,5.6-7.5,9.4l-99.6,202.7v202.9l124,223c1.3,3.1,3.6,6.1,7,8.9c3.4,2.8,7,4.2,10.8,4.2h99.5
	c6.3,0,10-2.2,11.2-6.6C2437.3,644.9,2436.7,639.9,2434.2,634.3z"/>
</svg>
